#!OML:ASF F:\VICON\USERDATA\INSTALL\rory3\rory3.ASF
:FULLY-SPECIFIED
:DEGREES
1
root -2.81734 17.5808 21.3552 178.756 19.1393 -174.844
lowerback -5.48237 -1.56096 1.35392
upperback -5.57588 -1.59277 3.60532
thorax -2.6197 -0.569694 2.90312
lowerneck -14.6517 -0.743618 -3.38302
upperneck 34.0044 1.5737 1.84491
head 14.0059 1.38376 1.81231
rclavicle 2.04748e-014 1.94809e-014
rhumerus -17.5797 39.0806 -90.8168
rradius 127.52
rwrist -12.566
rhand -14.0784 -60.9874
rfingers 7.12502
rthumb -167.946 -89.3798
lclavicle 2.04748e-014 1.94809e-014
lhumerus 66.5969 -0.391363 48.9337
lradius 89.502
lwrist 95.105
lhand -47.0308 -15.5104
lfingers 7.12502
lthumb -19.7369 13.5075
rfemur -71.318 -8.73179 35.8756
rtibia 83.5497
rfoot -2.10832 -8.96289
rtoes -1.85715
lfemur -9.1441 -2.03874 -24.6875
ltibia 29.9764
lfoot -23.6826 16.9846
ltoes 5.44371
2
root -2.82115 17.5837 21.3517 178.721 19.1764 -174.817
lowerback -5.39886 -1.53908 1.40887
upperback -5.51343 -1.57276 3.60085
thorax -2.60369 -0.565231 2.86907
lowerneck -14.6703 -0.755812 -3.69749
upperneck 33.8046 1.45244 2.28428
head 13.9169 1.33788 2.01582
rclavicle 6.55989e-015 -1.03368e-014
rhumerus -17.4774 39.2363 -90.9803
rradius 127.404
rwrist -12.3837
rhand -13.9466 -60.7034
rfingers 7.12502
rthumb -167.819 -89.6713
lclavicle 6.55989e-015 -1.03368e-014
lhumerus 66.601 -0.257642 49.2246
lradius 89.4752
lwrist 95.0853
lhand -46.8852 -14.1096
lfingers 7.12502
lthumb -19.597 14.9227
rfemur -71.1592 -8.75949 35.8855
rtibia 83.5186
rfoot -2.25862 -8.89856
rtoes -2.11755
lfemur -9.08119 -2.03818 -24.676
ltibia 29.9495
lfoot -23.675 16.9521
ltoes 5.60677
3
root -2.82371 17.5848 21.3506 178.706 19.1802 -174.869
lowerback -5.29154 -1.52332 1.33108
upperback -5.51112 -1.55002 3.59108
thorax -2.65982 -0.553098 2.90573
lowerneck -14.8007 -0.972176 -3.9652
upperneck 34.1656 1.22986 2.40196
head 14.1162 1.23657 2.0933
rclavicle -2.18663e-014 -3.26007e-014
rhumerus -17.4863 39.4109 -91.3785
rradius 127.274
rwrist -12.392
rhand -13.6352 -61.3
rfingers 7.12502
rthumb -167.519 -89.0927
lclavicle -2.18663e-014 -3.26007e-014
lhumerus 66.5467 -0.172794 49.5766
lradius 89.5641
lwrist 94.979
lhand -46.7689 -12.8988
lfingers 7.12502
lthumb -19.4851 16.1448
rfemur -71.1061 -8.78571 35.8288
rtibia 83.554
rfoot -2.33136 -8.94826
rtoes -1.84342
lfemur -9.06035 -1.96548 -24.7312
ltibia 29.9049
lfoot -23.6525 16.8682
ltoes 5.37429
4
root -2.82529 17.5863 21.3504 178.788 19.1536 -174.888
lowerback -5.35631 -1.48487 1.3134
upperback -5.49389 -1.50434 3.54851
thorax -2.608 -0.531802 2.87117
lowerneck -14.8121 -1.16662 -4.137
upperneck 34.3256 0.991374 2.48421
head 14.2012 1.13004 2.1267
rclavicle -1.23246e-014 -7.95139e-015
rhumerus -17.3325 39.4955 -91.8889
rradius 126.88
rwrist -12.1561
rhand -13.6222 -62.3538
rfingers 7.12502
rthumb -167.507 -88.0397
lclavicle -1.23246e-014 -7.95139e-015
lhumerus 66.5274 -0.172358 49.8444
lradius 89.6663
lwrist 94.6081
lhand -46.5589 -13.2457
lfingers 7.12502
lthumb -19.2832 15.8182
rfemur -71.1833 -8.8072 35.8302
rtibia 83.6217
rfoot -2.35689 -9.0756
rtoes -0.957183
lfemur -9.13052 -1.88423 -24.7403
ltibia 29.8728
lfoot -23.7064 16.7415
ltoes 5.16775
5
root -2.82853 17.587 21.3484 178.853 19.1042 -174.889
lowerback -5.43055 -1.45463 1.37671
upperback -5.45334 -1.4753 3.49382
thorax -2.52852 -0.522623 2.77756
lowerneck -14.7545 -1.2011 -4.26879
upperneck 34.1266 0.877356 2.67247
head 14.1009 1.08034 2.19801
rclavicle -7.61345e-014 1.47101e-014
rhumerus -17.2434 39.4856 -91.9894
rradius 126.821
rwrist -12.0225
rhand -14.1368 -62.2748
rfingers 7.12502
rthumb -168.003 -88.089
lclavicle -7.61345e-014 1.47101e-014
lhumerus 66.5425 -0.0976704 50.0715
lradius 89.787
lwrist 94.8516
lhand -46.6025 -13.762
lfingers 7.12502
lthumb -19.3251 15.2977
rfemur -71.2119 -8.90138 35.8714
rtibia 83.6885
rfoot -2.39068 -9.05352
rtoes -1.28467
lfemur -9.17963 -1.89455 -24.7455
ltibia 29.8479
lfoot -23.7362 16.6478
ltoes 5.12455
6
root -2.83129 17.5884 21.3471 178.884 19.0645 -174.918
lowerback -5.39669 -1.41597 1.39476
upperback -5.44907 -1.42729 3.44456
thorax -2.54629 -0.501506 2.71856
lowerneck -14.8222 -1.27481 -4.37241
upperneck 34.0946 0.756921 2.76338
head 14.1066 1.02288 2.2328
rclavicle -1.14301e-014 -3.4191e-014
rhumerus -17.323 39.5422 -92.0324
rradius 126.91
rwrist -12.06
rhand -15.0175 -61.6969
rfingers 7.12502
rthumb -168.852 -88.6192
lclavicle -1.14301e-014 -3.4191e-014
lhumerus 66.5245 -0.050057 50.4133
lradius 89.9403
lwrist 95.1281
lhand -46.6587 -12.8535
lfingers 7.12502
lthumb -19.3792 16.2008
rfemur -71.2092 -9.01856 35.898
rtibia 83.735
rfoot -2.35996 -8.87002
rtoes -2.01991
lfemur -9.22901 -1.90268 -24.779
ltibia 29.8613
lfoot -23.7346 16.5639
ltoes 5.09606
7
root -2.83213 17.591 21.348 178.968 19.0115 -174.916
lowerback -5.31273 -1.35521 1.37875
upperback -5.50797 -1.33897 3.40027
thorax -2.65823 -0.456222 2.68698
lowerneck -14.9222 -1.41889 -4.45421
upperneck 34.201 0.557345 2.83282
head 14.1868 0.938309 2.24959
rclavicle -7.95139e-016 -2.10712e-014
rhumerus -17.375 39.6243 -92.5377
rradius 126.625
rwrist -11.8336
rhand -15.6564 -62.1195
rfingers 7.12502
rthumb -169.468 -88.1644
lclavicle -7.95139e-016 -2.10712e-014
lhumerus 66.495 -0.154331 50.7572
lradius 90.0024
lwrist 94.7909
lhand -46.6209 -11.9039
lfingers 7.12502
lthumb -19.3428 17.1541
rfemur -71.2582 -9.09515 35.9464
rtibia 83.7785
rfoot -2.35405 -8.85734
rtoes -1.54045
lfemur -9.35265 -1.78088 -24.7536
ltibia 29.9044
lfoot -23.7134 16.366
ltoes 4.95771
8
root -2.83289 17.5946 21.3519 179.115 18.956 -174.748
lowerback -5.21109 -1.3187 1.50397
upperback -5.57551 -1.28034 3.40533
thorax -2.7908 -0.427419 2.62659
lowerneck -14.9061 -1.49904 -4.49661
upperneck 34.1841 0.421542 2.90818
head 14.1818 0.884691 2.26526
rclavicle -4.58199e-014 -6.36111e-015
rhumerus -17.3546 39.686 -93.0581
rradius 126.363
rwrist -11.4458
rhand -16.0627 -62.5031
rfingers 7.12502
rthumb -169.86 -87.7613
lclavicle -4.58199e-014 -6.36111e-015
lhumerus 66.4896 -0.197026 50.9204
lradius 89.9178
lwrist 94.5746
lhand -46.4392 -12.4058
lfingers 7.12502
lthumb -19.1681 16.6696
rfemur -71.2608 -9.11258 36.1494
rtibia 83.7619
rfoot -2.35979 -9.08731
rtoes -0.744305
lfemur -9.52318 -1.54542 -24.5344
ltibia 29.9537
lfoot -23.6354 16.1206
ltoes 4.69302
9
root -2.83392 17.5982 21.3564 179.249 18.912 -174.59
lowerback -5.17548 -1.34197 1.61476
upperback -5.58613 -1.30781 3.44837
thorax -2.82303 -0.442183 2.60909
lowerneck -14.7959 -1.57952 -4.5665
upperneck 34.0038 0.289191 2.90912
head 14.0825 0.810445 2.247
rclavicle 4.67144e-015 -7.95139e-016
rhumerus -17.262 39.925 -93.3863
rradius 126.207
rwrist -11.175
rhand -16.3605 -62.3696
rfingers 7.12502
rthumb -170.148 -87.8809
lclavicle 4.67144e-015 -7.95139e-016
lhumerus 66.4041 -0.0412079 50.9561
lradius 89.8388
lwrist 94.4177
lhand -45.7262 -13.4116
lfingers 7.12502
lthumb -18.4823 15.7304
rfemur -71.262 -9.12456 36.3414
rtibia 83.747
rfoot -2.44456 -9.2043
rtoes -0.0873467
lfemur -9.67351 -1.44335 -24.3456
ltibia 30.0049
lfoot -23.5864 16.0397
ltoes 4.39561
10
root -2.83453 17.5988 21.356 179.3 18.9171 -174.667
lowerback -5.15558 -1.3444 1.48952
upperback -5.60132 -1.30653 3.45314
thorax -2.84657 -0.437179 2.68499
lowerneck -14.5922 -1.80229 -4.74305
upperneck 33.8394 -0.00527001 2.86966
head 13.9797 0.649511 2.20613
rclavicle 9.83984e-015 -9.54166e-015
rhumerus -17.2353 40.2148 -93.6999
rradius 126.049
rwrist -10.9244
rhand -16.2198 -62.6789
rfingers 7.12502
rthumb -170.012 -87.5781
lclavicle 9.83984e-015 -9.54166e-015
lhumerus 66.2371 0.0872192 51.1159
lradius 89.8678
lwrist 94.0494
lhand -45.2912 -13.213
lfingers 7.12502
lthumb -18.0638 15.9681
rfemur -71.313 -9.14439 36.3184
rtibia 83.784
rfoot -2.51762 -9.09624
rtoes -0.0152229
lfemur -9.78387 -1.46516 -24.4288
ltibia 30.0491
lfoot -23.5446 16.1068
ltoes 4.17453
11
root -2.8352 17.6001 21.3543 179.371 18.8677 -174.707
lowerback -5.15448 -1.29559 1.43755
upperback -5.59789 -1.24404 3.40507
thorax -2.84533 -0.40645 2.66598
lowerneck -14.4995 -2.03703 -4.96999
upperneck 33.8034 -0.336015 2.99151
head 13.9621 0.493322 2.24096
rclavicle 9.93923e-016 -4.77083e-014
rhumerus -17.1504 40.2481 -93.9666
rradius 125.972
rwrist -10.5294
rhand -16.0084 -63.0067
rfingers 7.12502
rthumb -169.808 -87.2602
lclavicle 9.93923e-016 -4.77083e-014
lhumerus 66.2331 0.120074 51.4088
lradius 90.133
lwrist 94.2627
lhand -45.7002 -12.2896
lfingers 7.12502
lthumb -18.4573 16.8548
rfemur -71.3201 -9.2349 36.3485
rtibia 83.7725
rfoot -2.48389 -9.06901
rtoes -0.596413
lfemur -9.8933 -1.47689 -24.4681
ltibia 30.0598
lfoot -23.5236 16.0863
ltoes 3.98199
